<svg width="10" height="16" viewBox="0 0 10 16" fill="none" xmlns="http://www.w3.org/2000/svg">
<path d="M0 8C0 8.31567 0.117249 8.58625 0.369786 8.82074L7.3867 15.6933C7.58512 15.8918 7.83766 16 8.13529 16C8.73055 16 9.20857 15.531 9.20857 14.9267C9.20857 14.6291 9.0823 14.3675 8.88388 14.1601L2.56144 8L8.88388 1.83991C9.0823 1.63247 9.20857 1.36189 9.20857 1.07328C9.20857 0.468997 8.73055 0 8.13529 0C7.83766 0 7.58512 0.10823 7.3867 0.306652L0.369786 7.17024C0.117249 7.41375 0 7.68433 0 8Z" fill="#1C1C1E"/>
</svg>
