<svg width="52" height="52" viewBox="0 0 52 52" fill="none" xmlns="http://www.w3.org/2000/svg">
<rect width="52" height="52" rx="26" fill="#DA7E70"/>
<path d="M27.9247 33.1755C27.9247 33.7278 27.477 34.1755 26.9247 34.1755L26.168 34.1755C25.6186 34.1755 25.1721 33.7323 25.168 33.183L25.132 28.4105C25.1279 27.8641 24.6859 27.4222 24.1396 27.4181L19.3671 27.3821C18.8177 27.378 18.3746 26.9315 18.3746 26.3821L18.3746 25.633C18.3746 25.0777 18.8269 24.6288 19.3822 24.633L24.1016 24.6686C24.6628 24.6728 25.1175 24.2145 25.109 23.6534L25.0382 18.9925C25.0297 18.4343 25.4798 17.9773 26.0381 17.9773L26.7795 17.9773C27.3288 17.9773 27.7753 18.4204 27.7795 18.9697L27.8155 23.7422C27.8196 24.2886 28.2615 24.7305 28.8079 24.7346L33.5804 24.7706C34.1297 24.7748 34.5728 25.2213 34.5728 25.7706V26.5197C34.5728 27.0749 34.1204 27.5239 33.5652 27.5196L28.9324 27.4842C28.3771 27.4799 27.9247 27.9288 27.9247 28.4841L27.9247 33.1755Z" fill="white"/>
</svg>
