<svg width="18" height="17" viewBox="0 0 18 17" fill="none" xmlns="http://www.w3.org/2000/svg">
<path d="M0 5.5583C0 9.35573 3.19269 13.1087 8.15514 16.3103C8.43083 16.4881 8.76877 16.666 9 16.666C9.23123 16.666 9.56917 16.4881 9.84486 16.3103C14.8162 13.1087 18 9.35573 18 5.5583C18 2.27668 15.7322 0 12.8241 0C11.1255 0 9.8004 0.773715 9 1.94763C8.21739 0.782609 6.8834 0 5.18478 0C2.26779 0 0 2.27668 0 5.5583ZM1.83202 5.54941C1.83202 3.3083 3.3083 1.78755 5.2915 1.78755C6.89229 1.78755 7.79051 2.75692 8.35079 3.60178C8.5998 3.9664 8.76877 4.08202 9 4.08202C9.24012 4.08202 9.3913 3.95751 9.64921 3.60178C10.254 2.7747 11.1166 1.78755 12.7085 1.78755C14.7006 1.78755 16.1769 3.3083 16.1769 5.54941C16.1769 8.67984 12.9219 12.1482 9.16897 14.6383C9.08893 14.6917 9.03557 14.7273 9 14.7273C8.96443 14.7273 8.91107 14.6917 8.83992 14.6383C5.08696 12.1482 1.83202 8.67984 1.83202 5.54941Z" fill="#DA7E70"/>
</svg>